<?xml version="1.0" encoding="utf-8"?>
<!-- Generator: Adobe Illustrator 28.0.0, SVG Export Plug-In . SVG Version: 6.00 Build 0)  -->
<svg version="1.1" id="Calque_1" xmlns="http://www.w3.org/2000/svg" xmlns:xlink="http://www.w3.org/1999/xlink" x="0px" y="0px"
	 viewBox="0 0 157.7 157.7" style="enable-background:new 0 0 157.7 157.7;" xml:space="preserve">
<style type="text/css">
	.st0{fill:#5A6F07;}
	.st1{fill:#6D850F;}
	.st2{fill:#93AD18;}
</style>
<circle class="st0" cx="78.3" cy="10.4" r="9"/>
<circle class="st0" cx="78.3" cy="146.7" r="9"/>
<circle class="st0" cx="146.5" cy="78.6" r="9"/>
<circle class="st0" cx="10.1" cy="78.6" r="9"/>
<circle class="st0" cx="126.5" cy="30.4" r="9"/>
<circle class="st0" cx="30.1" cy="126.8" r="9"/>
<circle class="st0" cx="126.5" cy="126.8" r="9"/>
<circle class="st0" cx="30.1" cy="30.4" r="9"/>
<path class="st1" d="M101.9,111.8c-1.8,2.7-3.2,5.6-4.1,8.6c6.8,4.1,12.2,10.2,15.3,17.6c0-0.2,0-0.5,0-0.7
	C113.1,127.2,108.7,118.1,101.9,111.8z"/>
<path class="st1" d="M120.2,98c-3,1-5.9,2.3-8.6,4.1c6.3,6.9,15.4,11.2,25.5,11.2c0.2,0,0.5,0,0.7,0
	C130.4,110.2,124.3,104.8,120.2,98z"/>
<path class="st1" d="M115.5,85.7c-4,0.5-7.8,1.7-11.5,3.5c1.3,3.9,3.2,7.5,5.6,10.6c2.9-1.9,5.9-3.4,9.1-4.5
	C117.2,92.3,116.1,89,115.5,85.7z"/>
<path class="st1" d="M144.9,96c-0.2-0.2-0.3-0.3-0.5-0.5c-6.8-6.8-15.7-10.2-24.6-10.2c-0.5,0-0.9,0-1.4,0c0.6,3.2,1.7,6.2,3.2,9
	C129.3,92.5,137.5,93,144.9,96z"/>
<path class="st1" d="M121.6,62.7c-1.4,2.8-2.5,5.8-3.2,9c9.4,0.4,18.9-3,26-10.1c0.2-0.2,0.3-0.3,0.5-0.5c-4.5,1.8-9.3,2.7-14.1,2.7
	C127.7,63.8,124.6,63.4,121.6,62.7z"/>
<path class="st1" d="M149.3,101.6c-5.6-3.5-12.1-5.3-18.5-5.3c-2.6,0-5.1,0.3-7.6,0.8c4.8,7.6,12.6,13.2,21.6,15.3
	c2.9-0.7,5.6-1.7,8.1-3C152.1,106.7,150.9,104.1,149.3,101.6z"/>
<path class="st1" d="M96.9,123.4c-2,8.8-0.5,18.2,4.5,26.1c2.5,1.6,5.1,2.8,7.9,3.7c1.3-2.5,2.3-5.3,3-8.1
	C110.1,136,104.5,128.3,96.9,123.4z"/>
<path class="st1" d="M33.4,60c-4.8-7.6-12.6-13.2-21.6-15.3c-2.9,0.7-5.6,1.7-8.1,3c0.9,2.7,2.1,5.4,3.7,7.9
	C15.2,60.4,24.6,61.9,33.4,60z"/>
<path class="st1" d="M52.6,67.9c-1.2-3.9-3.2-7.5-5.6-10.6c-2.9,1.9-5.9,3.4-9.1,4.5c1.5,3,2.6,6.2,3.2,9.6
	C45.1,71,49,69.8,52.6,67.9z"/>
<path class="st1" d="M25.8,63.8c-4.8,0-9.6-0.9-14.1-2.7c0.2,0.2,0.3,0.3,0.5,0.5c7.1,7.1,16.6,10.5,26,10.1c-0.6-3.2-1.7-6.2-3.2-9
	C32,63.4,28.9,63.8,25.8,63.8z"/>
<path class="st1" d="M35,94.4c1.4-2.8,2.5-5.8,3.2-9c-0.5,0-0.9,0-1.4,0c-8.9,0-17.8,3.4-24.6,10.2c-0.2,0.2-0.3,0.3-0.5,0.5
	C19.1,93,27.3,92.5,35,94.4z"/>
<path class="st1" d="M33.4,97.1c-2.5-0.6-5.1-0.8-7.6-0.8c-6.4,0-12.9,1.8-18.5,5.3c-1.6,2.5-2.8,5.1-3.7,7.9c2.5,1.3,5.3,2.3,8.1,3
	C20.8,110.4,28.6,104.8,33.4,97.1z"/>
<path class="st1" d="M36.4,59.1c3-1,5.9-2.3,8.6-4.1c-6.4-6.9-15.5-11.2-25.5-11.2c-0.2,0-0.5,0-0.7,0
	C26.2,46.9,32.4,52.3,36.4,59.1z"/>
<path class="st1" d="M54.7,45.3c1.8-2.7,3.2-5.6,4.1-8.6C52,32.6,46.6,26.5,43.5,19.1c0,0.2,0,0.5,0,0.7
	C43.5,29.9,47.9,39,54.7,45.3z"/>
<path class="st1" d="M18.8,113.3c0.2,0,0.5,0,0.7,0c10.1,0,19.2-4.3,25.5-11.2c-2.7-1.8-5.6-3.2-8.6-4.1
	C32.3,104.8,26.2,110.2,18.8,113.3z"/>
<path class="st1" d="M62.4,121.9c1.9,7.7,1.4,15.9-1.6,23.3c0.2-0.2,0.3-0.3,0.5-0.5c7.1-7.1,10.5-16.6,10.1-26
	C68.3,119.4,65.2,120.4,62.4,121.9z"/>
<path class="st1" d="M44.4,145.1c0.7,2.9,1.7,5.6,3,8.1c2.7-0.9,5.4-2.1,7.9-3.7c4.9-7.9,6.4-17.3,4.5-26.1
	C52.1,128.3,46.5,136,44.4,145.1z"/>
<path class="st1" d="M41.1,85.7c-0.6,3.4-1.8,6.6-3.2,9.6c3.2,1.1,6.2,2.6,9.1,4.5c2.4-3.2,4.4-6.7,5.6-10.6
	C49,87.3,45.1,86.2,41.1,85.7z"/>
<path class="st1" d="M94.2,121.9c-2.8-1.4-5.8-2.5-9-3.2c-0.4,9.4,3,18.9,10.1,26c0.2,0.2,0.3,0.3,0.5,0.5
	C92.8,137.8,92.3,129.6,94.2,121.9z"/>
<path class="st1" d="M58.9,120.4c-1-3-2.3-5.9-4.1-8.6c-6.9,6.4-11.2,15.5-11.2,25.5c0,0.2,0,0.5,0,0.7
	C46.7,130.7,52.1,124.5,58.9,120.4z"/>
<path class="st1" d="M61.6,38.2c-1.1,3.2-2.6,6.2-4.5,9.1c3.2,2.4,6.7,4.4,10.6,5.6c1.9-3.6,3-7.5,3.5-11.5
	C67.8,40.8,64.6,39.6,61.6,38.2z"/>
<path class="st1" d="M61.6,119c3-1.5,6.2-2.6,9.6-3.2c-0.5-4-1.7-7.8-3.5-11.5c-3.9,1.3-7.5,3.2-10.6,5.6
	C59,112.7,60.5,115.8,61.6,119z"/>
<path class="st1" d="M95,38.2c-3,1.5-6.2,2.6-9.6,3.2c0.5,4,1.7,7.8,3.5,11.5c3.9-1.2,7.5-3.2,10.6-5.6C97.6,44.4,96.1,41.3,95,38.2
	z"/>
<path class="st1" d="M97.7,36.7c1,3,2.3,5.9,4.1,8.6c6.9-6.4,11.2-15.5,11.2-25.5c0-0.2,0-0.5,0-0.7
	C109.9,26.4,104.5,32.6,97.7,36.7z"/>
<path class="st1" d="M95,119c1.1-3.2,2.6-6.2,4.5-9.1c-3.2-2.4-6.7-4.4-10.6-5.6c-1.9,3.6-3,7.5-3.5,11.5
	C88.8,116.4,92,117.5,95,119z"/>
<path class="st1" d="M115.5,71.5c0.6-3.4,1.8-6.6,3.2-9.6c-3.2-1.1-6.2-2.6-9.1-4.5c-2.4,3.2-4.4,6.7-5.6,10.6
	C107.6,69.8,111.5,71,115.5,71.5z"/>
<path class="st1" d="M137.8,43.8c-0.2,0-0.5,0-0.7,0c-10.1,0-19.2,4.3-25.5,11.2c2.7,1.8,5.6,3.2,8.6,4.1
	C124.3,52.3,130.4,46.9,137.8,43.8z"/>
<path class="st1" d="M94.2,35.2c-1.9-7.7-1.4-15.9,1.6-23.3c-0.2,0.2-0.3,0.3-0.5,0.5c-7.1,7.1-10.5,16.6-10.1,26
	C88.3,37.8,91.4,36.7,94.2,35.2z"/>
<path class="st1" d="M62.4,35.2c2.8,1.4,5.8,2.5,9,3.2c0.4-9.4-3-18.9-10.1-26c-0.2-0.2-0.3-0.3-0.5-0.5
	C63.8,19.4,64.3,27.5,62.4,35.2z"/>
<path class="st1" d="M59.7,33.7c2-8.8,0.5-18.2-4.5-26.1c-2.5-1.6-5.1-2.8-7.9-3.7C46,6.4,45,9.2,44.3,12
	C46.5,21.1,52.1,28.8,59.7,33.7z"/>
<path class="st1" d="M123.2,60c8.8,2,18.2,0.5,26.1-4.5c1.6-2.5,2.8-5.1,3.7-7.9c-2.5-1.3-5.3-2.3-8.1-3
	C135.8,46.7,128,52.3,123.2,60z"/>
<path class="st1" d="M112.2,12c-0.7-2.9-1.7-5.6-3-8.1c-2.7,0.9-5.4,2.1-7.9,3.7c-4.9,7.9-6.4,17.3-4.5,26.1
	C104.5,28.8,110.1,21.1,112.2,12z"/>
<path class="st1" d="M102.5,72.1c-0.4,2.1-0.7,4.3-0.7,6.5s0.2,4.4,0.7,6.5c3.2-1.5,6.7-2.6,10.3-3.1c-0.1-1.1-0.2-2.3-0.2-3.4
	c0-1.2,0.1-2.3,0.2-3.4C109.2,74.6,105.7,73.6,102.5,72.1z"/>
<path class="st1" d="M84.8,54.4c-1.5-3.2-2.6-6.7-3.1-10.3c-1.1,0.1-2.2,0.2-3.4,0.2c-1.2,0-2.3-0.1-3.4-0.2
	c-0.5,3.6-1.5,7-3.1,10.3c2.1,0.4,4.3,0.7,6.5,0.7C80.5,55,82.7,54.8,84.8,54.4z"/>
<path class="st1" d="M94.9,61.9c1.6,1.6,3.3,3,5.1,4.2c1.2-3.4,3-6.6,5.1-9.4c-0.9-0.7-1.7-1.5-2.6-2.3c-0.8-0.8-1.6-1.7-2.3-2.6
	c-2.9,2.1-6,3.9-9.5,5.1C92,58.7,93.4,60.4,94.9,61.9z"/>
<path class="st2" d="M92.1,92.4c2.1-2.1,4.3-3.8,6.7-5.3c-0.6-2.7-1-5.6-1-8.5s0.4-5.8,1-8.5c-2.4-1.5-4.7-3.3-6.7-5.3
	c-2.1-2.1-3.8-4.3-5.3-6.7c-2.7,0.6-5.6,1-8.5,1s-5.8-0.4-8.5-1c-1.5,2.4-3.2,4.6-5.3,6.7c-2.1,2.1-4.3,3.8-6.7,5.3
	c0.6,2.7,1,5.6,1,8.5s-0.4,5.8-1,8.5c2.4,1.5,4.7,3.3,6.7,5.3c2.1,2.1,3.8,4.3,5.3,6.7c2.7-0.6,5.6-1,8.5-1s5.8,0.4,8.5,1
	C88.3,96.7,90,94.4,92.1,92.4z"/>
<path class="st1" d="M61.7,95.2c-1.6-1.6-3.3-3-5.1-4.2c-1.2,3.4-3,6.6-5.1,9.4c0.9,0.7,1.7,1.5,2.6,2.3c0.8,0.8,1.6,1.7,2.3,2.6
	c2.9-2.1,6-3.9,9.4-5.1C64.6,98.4,63.2,96.7,61.7,95.2z"/>
<path class="st1" d="M100,91c-1.8,1.2-3.5,2.6-5.1,4.2c-1.6,1.6-3,3.3-4.2,5.1c3.4,1.2,6.6,3,9.5,5.1c0.7-0.9,1.5-1.7,2.3-2.6
	c0.8-0.8,1.7-1.6,2.6-2.3C103,97.6,101.2,94.4,100,91z"/>
<path class="st1" d="M71.8,102.7c1.5,3.2,2.6,6.7,3.1,10.3c1.1-0.1,2.3-0.2,3.4-0.2c1.2,0,2.3,0.1,3.4,0.2c0.5-3.6,1.5-7,3.1-10.3
	c-2.1-0.4-4.3-0.6-6.5-0.6C76.1,102.1,73.9,102.3,71.8,102.7z"/>
<path class="st1" d="M54.1,85.1c0.4-2.1,0.7-4.3,0.7-6.5s-0.2-4.4-0.7-6.5c-3.2,1.5-6.7,2.6-10.3,3.1c0.1,1.1,0.2,2.3,0.2,3.4
	c0,1.2-0.1,2.3-0.2,3.4C47.4,82.5,50.9,83.5,54.1,85.1z"/>
<path class="st1" d="M61.7,61.9c1.6-1.6,3-3.3,4.2-5.1c-3.4-1.2-6.6-3-9.4-5.1c-0.7,0.9-1.5,1.7-2.3,2.6c-0.8,0.8-1.7,1.6-2.6,2.3
	c2.1,2.9,3.9,6,5.1,9.4C58.4,64.9,60.1,63.5,61.7,61.9z"/>
</svg>
